<?xml version="1.0" encoding="UTF-8" standalone="no"?>
<svg
   width="246"
   height="240.37"
   viewBox="0 0 246 240.37"
   version="1.1"
   id="svg4"
   sodipodi:docname="CP logo badge.svg"
   inkscape:version="1.4 (e7c3feb1, 2024-10-09)"
   xmlns:inkscape="http://www.inkscape.org/namespaces/inkscape"
   xmlns:sodipodi="http://sodipodi.sourceforge.net/DTD/sodipodi-0.dtd"
   xmlns="http://www.w3.org/2000/svg"
   xmlns:svg="http://www.w3.org/2000/svg">
  <defs
     id="defs4" />
  <sodipodi:namedview
     id="namedview4"
     pagecolor="#ffffff"
     bordercolor="#000000"
     borderopacity="0.25"
     inkscape:showpageshadow="2"
     inkscape:pageopacity="0.0"
     inkscape:pagecheckerboard="0"
     inkscape:deskcolor="#d1d1d1"
     inkscape:document-units="mm"
     inkscape:zoom="1.912841"
     inkscape:cx="100.63565"
     inkscape:cy="50.709914"
     inkscape:window-width="1480"
     inkscape:window-height="1089"
     inkscape:window-x="201"
     inkscape:window-y="169"
     inkscape:window-maximized="0"
     inkscape:current-layer="svg4" />
  <path
     d="m556.35 369.83c-6.539 8.4806-18.116 9.4609-26.254 9.4609 0 0-13.963 3e-3 -29.248 3e-3 1.1082 4.7135 2.8602 12.181 3.2497 14.157 1.239 6.2833-0.1558 12.268-3.9346 16.866-5.0707 6.1745-13.554 9.1772-25.925 9.1772-0.0191 0-40.253 0.0323-40.253 0.0323-21.492 0-33.772-9.1875-39.819-29.788l-0.0382-0.13081c-0.0265-0.0911-0.0456-0.17196-15.043-58.156-2.7323-10.193-1.8166-18.134 2.8249-24.181 6.4067-8.3527 17.345-9.3183 25.017-9.3183l29.601-0.0294c-4.0066-12.932-9.1993-29.678-9.627-31.062-1.2096-1.796-17.598-26.084-17.598-26.084l70.73-0.025s6.9285 22.31 9.3257 30.024c6.6963-0.0176 16.87-0.047 16.87-0.047 22.534 0 34.254 8.6408 40.476 29.827l0.0544 0.1896 12.12 45.009c1.2317 4.6768 4.0757 15.51-2.528 24.075"
     fill="#154734"
     id="path1"
     inkscape:label="Green"
     transform="matrix(1.3333,0,0,-1.3333,-502.53,560.54)" />
  <path
     d="m 433.98,410.95 c -17.74,0 -26.592,-6.6271 -31.585,-23.628 v -10e-4 c -0.0279,-0.10141 -15.009,-58.02 -15.009,-58.02 -2.0404,-7.6276 -1.6153,-12.972 1.3286,-16.812 3.1659,-4.1242 8.7824,-5.9634 18.212,-5.9634 l 40.556,-0.0352 c 17.869,0 27.325,6.4402 31.762,21.532 l 4.0796,13.825 -43.544,-0.003 -0.42627,-2.7363 c -0.0118,-0.0735 -1.1967,-7.3843 -6.0352,-7.3843 -1.167,0 -1.5249,0.24022 -1.5293,0.24316 -0.0985,0.24839 -0.0216,1.1625 0.28125,2.6484 0.37626,1.8372 6.2618,25.516 11.188,45.239 l 0.0864,0.35156 c 1.1479,4.7914 4.3224,5.9326 6.1714,5.5093 0.5056,-0.11611 0.78333,-0.40084 0.89062,-0.55664 -0.29689,-1.2934 -2.3569,-10.26 -2.3569,-10.26 l 4.0342,-0.0176 38.897,-0.0322 0.58887,2.477 c 0.14551,0.61583 3.5915,15.136 4.1162,17.785 0.74224,3.77 0.004,7.1426 -2.1445,9.7588 -3.3437,4.0698 -9.6591,6.0469 -19.305,6.0469 -0.0176,0 -40.258,0.0337 -40.258,0.0337 z m 23.372,-40.226 1.5982,-4.3316 c 0,0 2.4956,-6.7652 3.0835,-8.3599 -0.41152,-1.3963 -3.6284,-12.302 -3.6284,-12.302 h 45.447 c 3.013,0 3.5844,-0.5493 3.5889,-0.55371 0.0764,-0.12346 0.13037,-0.35028 0.13037,-0.73242 0,-0.95828 -0.34178,-2.9094 -1.5117,-6.7749 0,0 -8.0551,-27.709 -8.0771,-27.785 -0.0941,-0.24104 -0.41895,-1.0752 -0.41895,-1.0752 -1.5183,-3.9375 -1.6781,-4.3491 -5.3686,-4.3491 h -44.662 c 0,0 -12.543,-40.465 -12.816,-41.351 -0.48503,-0.72018 -9.2871,-13.765 -9.2871,-13.765 l 48.294,-0.0146 c 0,0 8.12,26.158 9.3267,30.038 3.9081,-0.0103 23.205,-0.0645 23.205,-0.0645 18.659,0 27.093,6.192 32.225,23.666 0.0176,0.0691 12.125,45.013 12.125,45.013 1.555,5.9232 2.4977,12.017 -1.043,16.607 -3.2203,4.1786 -9.4058,6.123 -19.463,6.123 l -68.131,0.0117 h -4.6157 z"
     fill="#b28f4f"
     id="path2"
     transform="matrix(1.3333,0,0,-1.3333,-502.53,560.54)"
     style="display:inline"
     inkscape:label="Gold" />
  <path
     d="m 433.98,407.73 c -16.422,0 -23.879,-5.584 -28.499,-21.318 0,0 -14.978,-57.904 -14.981,-57.921 -3.7979,-14.17 1.829,-18.75 16.43,-18.75 l 40.553,-0.0366 c 16.403,0 24.679,5.5661 28.677,19.223 l 2.8623,9.7017 -36.488,-0.003 c 0,0 -1.4829,-10.118 -9.2139,-10.118 -5.6468,0 -4.9457,4.0765 -4.3989,6.7515 0.54822,2.6735 11.282,45.613 11.282,45.62 1.6212,6.7653 6.6067,8.7507 10.033,7.9673 2.1929,-0.50266 3.7218,-2.4189 3.394,-4.0254 -0.24986,-1.217 -1.5425,-6.7251 -1.5425,-6.7251 l 36.356,-0.0293 c 0,0 3.5725,15.045 4.0898,17.665 1.4066,7.1372 -3.7584,11.966 -18.293,11.966 l -40.261,0.0322 z m 27.99,-40.225 3.4438,-9.3618 -0.0498,-0.17138 -2.6558,-9.022 h 41.145 c 8.0573,0 7.9366,-3.4467 5.2852,-12.215 -2.3634,-7.8147 -8.101,-27.879 -8.105,-27.883 -1.9768,-4.984 -2.3998,-7.6099 -8.8359,-7.6099 h -42.293 l -12.256,-39.539 -6.1685,-9.148 39.895,-0.0103 9.3091,30.042 c 0,0 25.571,-0.0689 25.575,-0.0689 17.365,0 24.456,5.4237 29.137,21.359 0,0 12.099,44.93 12.103,44.941 2.8161,10.713 2.56,18.677 -17.399,18.677 -0.007,0 -68.128,0.0102 -68.128,0.0102 z"
     fill="#f8e08e"
     id="path3"
     transform="matrix(1.3333,0,0,-1.3333,-502.53,560.54)"
     inkscape:label="White"
     style="display:inline;fill:#ffffff;fill-opacity:1" />
  <path
     d="m 433.98,407.73 c -16.422,0 -23.879,-5.584 -28.499,-21.318 0,0 -14.978,-57.904 -14.981,-57.921 -3.7979,-14.17 1.829,-18.75 16.43,-18.75 l 40.553,-0.0366 c 16.403,0 24.679,5.5661 28.677,19.223 l 2.8623,9.7017 -36.488,-0.003 c 0,0 -1.4829,-10.118 -9.2139,-10.118 -5.6468,0 -4.9457,4.0765 -4.3989,6.7515 0.54822,2.6735 11.282,45.613 11.282,45.62 1.6212,6.7653 6.6067,8.7507 10.033,7.9673 2.1929,-0.50266 3.7218,-2.4189 3.394,-4.0254 -0.24986,-1.217 -1.5425,-6.7251 -1.5425,-6.7251 l 36.356,-0.0293 c 0,0 3.5725,15.045 4.0898,17.665 1.4066,7.1372 -3.7584,11.966 -18.293,11.966 l -40.261,0.0322 z m 27.99,-40.225 3.4438,-9.3618 -0.0498,-0.17138 -2.6558,-9.022 h 41.145 c 8.0573,0 7.9366,-3.4467 5.2852,-12.215 -2.3634,-7.8147 -8.101,-27.879 -8.105,-27.883 -1.9768,-4.984 -2.3998,-7.6099 -8.8359,-7.6099 h -42.293 l -12.256,-39.539 -6.1685,-9.148 39.895,-0.0103 9.3091,30.042 c 0,0 25.571,-0.0689 25.575,-0.0689 17.365,0 24.456,5.4237 29.137,21.359 0,0 12.099,44.93 12.103,44.941 2.8161,10.713 2.56,18.677 -17.399,18.677 -0.007,0 -68.128,0.0102 -68.128,0.0102 z"
     fill="#f8e08e"
     id="path4"
     transform="matrix(1.3333,0,0,-1.3333,-502.53,560.54)"
     inkscape:label="Yellow"
     style="display:none" />
</svg>
