<?xml version="1.0" encoding="UTF-8" standalone="no"?>
<svg
   width="246"
   height="240.37"
   viewBox="0 0 246 240.37"
   version="1.1"
   id="svg4"
   sodipodi:docname="CP logo badge layers.svg"
   inkscape:version="1.4 (e7c3feb1, 2024-10-09)"
   inkscape:export-filename="layers/silk.svg"
   inkscape:export-xdpi="2540"
   inkscape:export-ydpi="2540"
   xmlns:inkscape="http://www.inkscape.org/namespaces/inkscape"
   xmlns:sodipodi="http://sodipodi.sourceforge.net/DTD/sodipodi-0.dtd"
   xmlns="http://www.w3.org/2000/svg"
   xmlns:svg="http://www.w3.org/2000/svg">
  <defs
     id="defs4">
    <inkscape:path-effect
       effect="fillet_chamfer"
       id="path-effect16"
       is_visible="true"
       lpeversion="1"
       nodesatellites_param="F,0,0,1,0,0,0,1 @ F,0,0,1,0,0,0,1 @ F,0,0,1,0,0,0,1 @ F,0,0,1,0,0,0,1 @ F,0,0,1,0,0,0,1 @ F,0,0,1,0,0,0,1 @ F,0,0,1,0,0,0,1 @ F,0,0,1,0,0,0,1 @ F,0,0,1,0,0,0,1 @ F,0,0,1,0,0,0,1 @ F,0,0,1,0,0,0,1 @ F,0,0,1,0,0,0,1 @ F,0,0,1,0,0,0,1 @ F,0,0,1,0,3.6821758,0,1 @ F,0,0,1,0,3.3802696,0,1 @ F,0,0,1,0,0,0,1 @ F,0,0,1,0,0,0,1 @ F,0,0,1,0,0,0,1 @ F,0,0,1,0,0,0,1 @ F,0,0,1,0,0,0,1 @ F,0,0,1,0,0,0,1"
       radius="0"
       unit="px"
       method="auto"
       mode="F"
       chamfer_steps="1"
       flexible="false"
       use_knot_distance="true"
       apply_no_radius="true"
       apply_with_radius="true"
       only_selected="false"
       hide_knots="false" />
    <inkscape:path-effect
       effect="fillet_chamfer"
       id="path-effect14"
       is_visible="true"
       lpeversion="1"
       nodesatellites_param="F,0,0,1,0,0,0,1 @ F,0,0,1,0,0,0,1 @ F,0,0,1,0,0,0,1 @ F,0,0,1,0,0,0,1 @ F,0,0,1,0,0,0,1 @ F,0,0,1,0,0,0,1 @ F,0,0,1,0,0,0,1 @ F,0,0,1,0,0,0,1 @ F,0,0,1,0,0,0,1 @ F,0,0,1,0,0,0,1 @ F,0,0,1,0,0,0,1 @ F,0,0,1,0,0,0,1 @ F,0,0,1,0,0,0,1 @ F,0,0,1,0,0,0,1 @ F,0,0,1,0,3.6821758,0,1 @ F,0,0,1,0,3.3802696,0,1 @ F,0,0,1,0,0,0,1 @ F,0,0,1,0,0,0,1 @ F,0,0,1,0,0,0,1 @ F,0,0,1,0,0,0,1 @ F,0,0,1,0,0,0,1 @ F,0,0,1,0,0,0,1"
       radius="0"
       unit="px"
       method="auto"
       mode="F"
       chamfer_steps="1"
       flexible="false"
       use_knot_distance="true"
       apply_no_radius="true"
       apply_with_radius="true"
       only_selected="false"
       hide_knots="false" />
    <inkscape:path-effect
       effect="fillet_chamfer"
       id="path-effect12"
       is_visible="true"
       lpeversion="1"
       nodesatellites_param="F,0,0,1,0,0,0,1 @ F,0,0,1,0,0,0,1 @ F,0,0,1,0,0,0,1 @ F,0,0,1,0,0,0,1 @ F,0,0,1,0,0,0,1 @ F,0,0,1,0,0,0,1 @ F,0,0,1,0,0,0,1 @ F,0,0,1,0,0,0,1 @ F,0,0,1,0,0,0,1 @ F,0,0,1,0,0,0,1 @ F,0,0,1,0,0,0,1 @ F,0,0,1,0,0,0,1 @ F,0,0,1,0,0,0,1 @ F,0,0,1,0,3.6821758,0,1 @ F,0,0,1,0,3.3802696,0,1 @ F,0,0,1,0,0,0,1 @ F,0,0,1,0,0,0,1 @ F,0,0,1,0,0,0,1 @ F,0,0,1,0,0,0,1 @ F,0,0,1,0,0,0,1 @ F,0,0,1,0,0,0,1"
       radius="0"
       unit="px"
       method="auto"
       mode="F"
       chamfer_steps="1"
       flexible="false"
       use_knot_distance="true"
       apply_no_radius="true"
       apply_with_radius="true"
       only_selected="false"
       hide_knots="false" />
    <inkscape:path-effect
       effect="fillet_chamfer"
       id="path-effect11"
       is_visible="true"
       lpeversion="1"
       nodesatellites_param="F,0,0,1,0,0,0,1 @ F,0,0,1,0,0,0,1 @ F,0,0,1,0,0,0,1 @ F,0,0,1,0,0,0,1 @ F,0,0,1,0,0,0,1 @ F,0,0,1,0,0,0,1 @ F,0,0,1,0,0,0,1 @ F,0,0,1,0,0,0,1 @ F,0,0,1,0,0,0,1 @ F,0,0,1,0,0,0,1 @ F,0,0,1,0,0,0,1 @ F,0,0,1,0,0,0,1 @ F,0,0,1,0,0,0,1 @ F,0,0,1,0,0,0,1 @ F,0,0,1,0,4.3909272,0,1 @ F,0,0,1,0,0,0,1 @ F,0,0,1,0,0,0,1 @ F,0,0,1,0,0,0,1 @ F,0,0,1,0,0,0,1 @ F,0,0,1,0,0,0,1 @ F,0,0,1,0,0,0,1 @ F,0,0,1,0,0,0,1"
       radius="0"
       unit="px"
       method="auto"
       mode="F"
       chamfer_steps="1"
       flexible="false"
       use_knot_distance="true"
       apply_no_radius="true"
       apply_with_radius="true"
       only_selected="false"
       hide_knots="false" />
  </defs>
  <sodipodi:namedview
     id="namedview4"
     pagecolor="#ffffff"
     bordercolor="#000000"
     borderopacity="0.25"
     inkscape:showpageshadow="2"
     inkscape:pageopacity="0.0"
     inkscape:pagecheckerboard="0"
     inkscape:deskcolor="#d1d1d1"
     inkscape:document-units="mm"
     inkscape:zoom="2.7628002"
     inkscape:cx="79.810332"
     inkscape:cy="112.74793"
     inkscape:window-width="1488"
     inkscape:window-height="980"
     inkscape:window-x="2266"
     inkscape:window-y="545"
     inkscape:window-maximized="0"
     inkscape:current-layer="layer9" />
  <g
     inkscape:groupmode="layer"
     id="layer5"
     inkscape:label="Copper (not needed)"
     style="display:none">
    <path
       d="m 433.98,410.95 c -17.74,0 -26.592,-6.6271 -31.585,-23.628 v -10e-4 c -0.0279,-0.10141 -15.009,-58.02 -15.009,-58.02 -2.0404,-7.6276 -1.6153,-12.972 1.3286,-16.812 3.1659,-4.1242 8.7824,-5.9634 18.212,-5.9634 l 40.556,-0.0352 c 17.869,0 27.325,6.4402 31.762,21.532 l 4.0796,13.825 -43.544,-0.003 -0.42627,-2.7363 c -0.0118,-0.0735 -1.1967,-7.3843 -6.0352,-7.3843 -1.167,0 -1.5249,0.24022 -1.5293,0.24316 -0.0985,0.24839 -0.0216,1.1625 0.28125,2.6484 0.37626,1.8372 6.2618,25.516 11.188,45.239 l 0.0864,0.35156 c 1.1479,4.7914 4.3224,5.9326 6.1714,5.5093 0.5056,-0.11611 0.78333,-0.40084 0.89062,-0.55664 -0.29689,-1.2934 -2.3569,-10.26 -2.3569,-10.26 l 4.0342,-0.0176 38.897,-0.0322 0.58887,2.477 c 0.14551,0.61583 3.5915,15.136 4.1162,17.785 0.74224,3.77 0.004,7.1426 -2.1445,9.7588 -3.3437,4.0698 -9.6591,6.0469 -19.305,6.0469 -0.0176,0 -40.258,0.0337 -40.258,0.0337 z m 23.372,-40.226 1.5982,-4.3316 c 0,0 2.4956,-6.7652 3.0835,-8.3599 -0.41152,-1.3963 -3.6284,-12.302 -3.6284,-12.302 h 45.447 c 3.013,0 3.5844,-0.5493 3.5889,-0.55371 0.0764,-0.12346 0.13037,-0.35028 0.13037,-0.73242 0,-0.95828 -0.34178,-2.9094 -1.5117,-6.7749 0,0 -8.0551,-27.709 -8.0771,-27.785 -0.0941,-0.24104 -0.41895,-1.0752 -0.41895,-1.0752 -1.5183,-3.9375 -1.6781,-4.3491 -5.3686,-4.3491 h -44.662 c 0,0 -12.543,-40.465 -12.816,-41.351 -0.48503,-0.72018 -9.2871,-13.765 -9.2871,-13.765 l 48.294,-0.0146 c 0,0 8.12,26.158 9.3267,30.038 3.9081,-0.0103 23.205,-0.0645 23.205,-0.0645 18.659,0 27.093,6.192 32.225,23.666 0.0176,0.0691 12.125,45.013 12.125,45.013 1.555,5.9232 2.4977,12.017 -1.043,16.607 -3.2203,4.1786 -9.4058,6.123 -19.463,6.123 l -68.131,0.0117 h -4.6157 z"
       fill="#b28f4f"
       id="path6"
       transform="matrix(1.3333,0,0,-1.3333,-502.52998,560.53998)"
       style="display:inline;fill:#000000;fill-opacity:1"
       inkscape:label="Gold" />
  </g>
  <g
     inkscape:groupmode="layer"
     id="layer6"
     inkscape:label="Mask (need inverse)"
     style="display:none"
     inkscape:export-filename="layers/mask.svg"
     inkscape:export-xdpi="2540"
     inkscape:export-ydpi="2540"
     sodipodi:insensitive="true">
    <path
       id="path7"
       style="display:inline;fill:#000000;fill-opacity:1"
       inkscape:label="Green"
       d="m 433.98451,419.52631 c -21.492,0 -33.77138,-9.18784 -39.81838,-29.78834 l -0.0381,-0.13037 c -0.0265,-0.0911 -0.0455,-0.17172 -15.04286,-58.15576 -2.7323,-10.193 -1.81721,-18.13378 2.82429,-24.18078 6.4067,-8.3527 17.34523,-9.3181 25.01723,-9.3181 l 29.60084,-0.0308 c -4.0066,-12.932 -9.19949,-29.67733 -9.62719,-31.06133 -1.2096,-1.796 -17.59761,-26.08366 -17.59761,-26.08366 l 70.73028,-0.0249 c 0,0 6.92823,22.31019 9.32543,30.02419 6.6963,-0.0176 16.86956,-0.0483 16.86956,-0.0483 22.534,0 34.25411,8.64169 40.47611,29.82789 l 0.0542,0.18897 12.12042,45.00992 c 1.2317,4.6768 4.07532,15.50884 -2.52838,24.07384 v 0.001 c -6.539,8.4806 -18.11705,9.46019 -26.25505,9.46019 0,0 -13.9628,0.003 -29.2478,0.003 1.1082,4.7135 2.86107,12.18207 3.25057,14.15807 1.239,6.2833 -0.15587,12.26717 -3.93467,16.86517 -5.0707,6.1745 -13.55445,9.17748 -25.92545,9.17748 -0.0191,0 -40.25345,0.0322 -40.25345,0.0322 z m -0.006,-8.57541 c 0,0 40.24024,-0.0337 40.25784,-0.0337 9.6459,0 15.96196,-1.97723 19.30566,-6.04703 2.1485,-2.6162 2.88682,-5.98903 2.14458,-9.75903 -0.5247,-2.649 -3.9708,-17.16928 -4.11631,-17.78511 l -0.58888,-2.47711 -38.89697,0.0322 -4.03428,0.0176 c 0,0 2.0601,8.96662 2.35699,10.26002 -0.10729,0.1558 -0.38505,0.44055 -0.89065,0.55666 -1.849,0.4233 -5.02364,-0.71802 -6.17154,-5.50942 l -0.0864,-0.35157 c -4.9262,-19.723 -10.81103,-43.40123 -11.18729,-45.23843 -0.30285,-1.4859 -0.37975,-2.40012 -0.28125,-2.64851 0.004,-0.003 0.36233,-0.24317 1.52933,-0.24317 4.8385,0 6.02204,7.31096 6.03384,7.38446 l 0.42628,2.73494 43.54504,0.004 -4.07969,-13.82554 c -4.437,-15.0918 -13.89401,-21.53228 -31.76301,-21.53228 l -40.55521,0.0352 c -9.4296,0 -15.04549,1.83933 -18.21139,5.96353 -2.9439,3.84 -3.36905,9.18483 -1.32865,16.81243 0,0 14.9798,57.91811 15.0077,58.01952 v 10e-4 c 4.993,17.0009 13.84575,23.62706 31.58575,23.62706 z m 10e-4,-3.22127 c -16.422,0 -23.87925,-5.58294 -28.49925,-21.31694 0,0 -14.97833,-57.90437 -14.98133,-57.92137 -3.7979,-14.17 1.8291,-18.75047 16.4301,-18.75047 l 40.55375,-0.0366 c 16.403,0 24.6785,5.56673 28.6765,19.22363 l 2.86237,9.7019 -36.48724,-0.003 c 0,0 -1.48309,-10.11939 -9.21409,-10.11939 -5.6468,0 -4.94584,4.07663 -4.39904,6.75163 0.54822,2.6735 11.28104,45.61377 11.28104,45.62077 1.6212,6.7653 6.60667,8.75088 10.03297,7.96748 2.1929,-0.50266 3.72193,-2.41899 3.39413,-4.02549 -0.24986,-1.217 -1.54252,-6.72526 -1.54252,-6.72526 l 36.35687,-0.0293 c 0,0 3.57264,15.04499 4.08994,17.66499 1.4066,7.1372 -3.75883,11.96514 -18.29343,11.96514 z m 23.37217,-37.00581 h 0.001 4.61438 l 68.13158,-0.0117 c 10.0572,0 16.2421,-1.9446 19.4624,-6.1232 3.5407,-4.59 2.598,-10.68415 1.043,-16.60735 0,0 -12.10722,-44.94374 -12.12482,-45.01284 -5.132,-17.474 -13.56543,-23.66514 -32.22443,-23.66514 0,0 -19.29707,0.0541 -23.20517,0.0645 -1.2067,-3.88 -9.3269,-30.03883 -9.3269,-30.03883 l -48.29417,0.0146 c 0,0 8.80231,13.04531 9.28734,13.76549 0.273,0.886 12.81624,41.35064 12.81624,41.35064 h 44.66273 c 3.6905,0 3.84903,0.41173 5.36733,4.34923 0,0 0.32485,0.83418 0.41895,1.07522 0.022,0.076 8.07735,27.78439 8.07735,27.78439 1.16992,3.8655 1.51176,5.81679 1.51176,6.77507 0,0.38214 -0.054,0.60898 -0.13038,0.73244 -0.005,0.004 -0.57595,0.55372 -3.58895,0.55372 h -45.44645 c 0,0 3.21699,10.90577 3.62851,12.30207 -0.5879,1.5947 -3.08358,8.36007 -3.08358,8.36007 z m 4.6173,-3.21834 3.44394,-9.36205 -0.0498,-0.17139 -2.65583,-9.0222 h 41.14556 c 8.0573,0 7.93669,-3.44734 5.28529,-12.21564 -2.3634,-7.8147 -8.10118,-27.87853 -8.10518,-27.88253 -1.9768,-4.984 -2.40006,-7.61005 -8.83616,-7.61005 h -42.29256 l -12.25666,-39.53859 -6.16861,-9.14818 39.89602,-0.0102 9.30785,30.04176 c 0,0 25.57135,-0.0688 25.57535,-0.0688 17.365,0 24.45693,5.42412 29.13793,21.35942 0,0 12.09884,44.93006 12.10284,44.94106 2.8161,10.713 2.55915,18.67723 -17.39985,18.67723 -0.007,0 -68.12719,0.0102 -68.12719,0.0102 z"
       transform="matrix(1.3333,0,0,-1.3333,-502.52998,560.53998)" />
  </g>
  <g
     inkscape:groupmode="layer"
     id="layer4"
     inkscape:label="Edge Cut"
     style="display:inline">
    <path
       d="m 530.096,379.2909 c 0,0 -13.963,0.003 -29.248,0.003 1.1082,4.7135 2.8602,12.181 3.2497,14.157 1.239,6.2833 -0.1558,12.268 -3.9346,16.866 -5.0707,6.1745 -13.554,9.1772 -25.925,9.1772 -0.0191,0 -40.253,0.0323 -40.253,0.0323 -21.492,0 -33.772,-9.1875 -39.819,-29.788 l -0.0382,-0.13081 c -0.0265,-0.0911 -0.0456,-0.17196 -15.043,-58.156 -2.7323,-10.193 -1.8166,-18.134 2.8249,-24.181 6.4067,-8.3527 17.345,-9.3183 25.017,-9.3183 l 29.601,-0.0294 c -4.0066,-12.932 -9.1993,-29.678 -9.627,-31.062 -0.94235,-1.39919 -11.09721,-16.44951 -15.53846,-23.03168 -1.13745,-1.68575 -0.41097,-3.0529 1.62264,-3.05362 l 63.66755,-0.0225 c 1.86687,-6.6e-4 3.82912,1.44412 4.38282,3.22699 2.00866,6.46773 6.49033,20.89793 8.32315,26.79582 6.6963,-0.0176 16.87,-0.047 16.87,-0.047 22.534,0 34.254,8.6408 40.476,29.827 l 0.0544,0.1896 12.12,45.009 c 1.2317,4.6768 4.0757,15.51 -2.52845,24.07525 -6.53945,8.48086 -18.11645,9.46116 -26.25445,9.46116 z"
       fill="#154734"
       id="path5"
       inkscape:label="Green"
       style="fill:none;stroke:#000000;stroke-width:0.999775;stroke-dasharray:none;stroke-opacity:1"
       inkscape:export-filename="layers/cu.svg"
       inkscape:export-xdpi="2540"
       inkscape:export-ydpi="2540"
       transform="matrix(1.3333,0,0,-1.3333,-502.52998,560.53998)"
       inkscape:path-effect="#path-effect12"
       inkscape:original-d="m 530.096,379.2909 c 0,0 -13.963,0.003 -29.248,0.003 1.1082,4.7135 2.8602,12.181 3.2497,14.157 1.239,6.2833 -0.1558,12.268 -3.9346,16.866 -5.0707,6.1745 -13.554,9.1772 -25.925,9.1772 -0.0191,0 -40.253,0.0323 -40.253,0.0323 -21.492,0 -33.772,-9.1875 -39.819,-29.788 l -0.0382,-0.13081 c -0.0265,-0.0911 -0.0456,-0.17196 -15.043,-58.156 -2.7323,-10.193 -1.8166,-18.134 2.8249,-24.181 6.4067,-8.3527 17.345,-9.3183 25.017,-9.3183 l 29.601,-0.0294 c -4.0066,-12.932 -9.1993,-29.678 -9.627,-31.062 -1.2096,-1.796 -17.598,-26.084 -17.598,-26.084 l 70.73,-0.025 c 0,0 6.9285,22.31 9.3257,30.024 6.6963,-0.0176 16.87,-0.047 16.87,-0.047 22.534,0 34.254,8.6408 40.476,29.827 l 0.0544,0.1896 12.12,45.009 c 1.2317,4.6768 4.0757,15.51 -2.52845,24.07525 -6.53945,8.48086 -18.11645,9.46116 -26.25445,9.46116 z"
       sodipodi:nodetypes="ccccsccccccccccccccccc" />
    <circle
       style="display:none;fill:none;fill-opacity:1;stroke:#000000;stroke-width:1.3;stroke-dasharray:none;stroke-opacity:1"
       id="path14"
       cx="98.867882"
       cy="14.214307"
       r="7.6121807" />
  </g>
  <g
     inkscape:groupmode="layer"
     id="layer9"
     inkscape:label="Mask Inv"
     style="display:none">
    <path
       id="path9"
       style="display:inline;fill:#000000;fill-opacity:1"
       inkscape:label="Gold"
       d="m 433.97865,410.9509 10e-4,-10e-4 c -17.74,0 -26.59275,-6.62616 -31.58575,-23.62706 v -10e-4 c -0.0279,-0.10141 -15.0077,-58.01952 -15.0077,-58.01952 -2.0404,-7.6276 -1.61525,-12.97243 1.32865,-16.81243 3.1659,-4.1242 8.78179,-5.96353 18.21139,-5.96353 l 40.55521,-0.0352 c 17.869,0 27.32601,6.44048 31.76301,21.53228 l 4.07969,13.82554 -43.54504,-0.004 -0.42628,-2.73494 c -0.0118,-0.0735 -1.19534,-7.38446 -6.03384,-7.38446 -1.167,0 -1.52493,0.24023 -1.52933,0.24317 -0.0985,0.24839 -0.0216,1.16261 0.28125,2.64851 0.37626,1.8372 6.26109,25.51543 11.18729,45.23843 l 0.0864,0.35157 c 1.1479,4.7914 4.32254,5.93272 6.17154,5.50942 0.5056,-0.11611 0.78336,-0.40086 0.89065,-0.55666 C 450.1099,383.86662 448.0498,374.9 448.0498,374.9 l 4.03428,-0.0176 38.89697,-0.0322 0.58888,2.47711 c 0.14551,0.61583 3.59161,15.13611 4.11631,17.78511 0.74224,3.77 0.004,7.14283 -2.14458,9.75903 -3.3437,4.0698 -9.65976,6.04703 -19.30566,6.04703 -0.0176,0 -40.25784,0.0337 -40.25784,0.0337 z m 10e-4,-3.22127 40.26077,-0.0322 c 14.5346,0 19.70003,-4.82794 18.29343,-11.96514 -0.5173,-2.62 -4.08994,-17.66499 -4.08994,-17.66499 l -36.35687,0.0293 c 0,0 1.29266,5.50826 1.54252,6.72526 0.3278,1.6065 -1.20123,3.52283 -3.39413,4.02549 -3.4263,0.7834 -8.41177,-1.20218 -10.03297,-7.96748 0,-0.007 -10.73282,-42.94727 -11.28104,-45.62077 -0.5468,-2.675 -1.24776,-6.75163 4.39904,-6.75163 7.731,0 9.21409,10.11939 9.21409,10.11939 l 36.48724,0.003 -2.86237,-9.7019 c -3.998,-13.6569 -12.2735,-19.22363 -28.6765,-19.22363 l -40.55375,0.0366 c -14.601,0 -20.228,4.58047 -16.4301,18.75047 0.003,0.017 14.98133,57.92137 14.98133,57.92137 4.62,15.734 12.07725,21.31694 28.49925,21.31694 z m 23.37217,-37.00581 1.59818,-4.33165 c 0,0 2.49568,-6.76537 3.08358,-8.36007 -0.41152,-1.3963 -3.62851,-12.30207 -3.62851,-12.30207 h 45.44645 c 3.013,0 3.58445,-0.54931 3.58895,-0.55372 0.0764,-0.12346 0.13038,-0.3503 0.13038,-0.73244 0,-0.95828 -0.34184,-2.90957 -1.51176,-6.77507 0,0 -8.05535,-27.70839 -8.07735,-27.78439 -0.0941,-0.24104 -0.41895,-1.07522 -0.41895,-1.07522 -1.5183,-3.9375 -1.67683,-4.34923 -5.36733,-4.34923 h -44.66273 c 0,0 -12.54324,-40.46464 -12.81624,-41.35064 -0.48503,-0.72018 -9.28734,-13.76549 -9.28734,-13.76549 l 48.29417,-0.0146 c 0,0 8.1202,26.15883 9.3269,30.03883 3.9081,-0.0103 23.20517,-0.0645 23.20517,-0.0645 18.659,0 27.09243,6.19114 32.22443,23.66514 0.0176,0.0691 12.12482,45.01284 12.12482,45.01284 1.555,5.9232 2.4977,12.01735 -1.043,16.60735 -3.2203,4.1786 -9.4052,6.1232 -19.4624,6.1232 l -68.13158,0.0117 h -4.61438 z m 4.6173,-3.21834 h 0.003 c 0,0 68.12019,-0.0102 68.12719,-0.0102 19.959,0 20.21595,-7.96423 17.39985,-18.67723 -0.004,-0.011 -12.10284,-44.94106 -12.10284,-44.94106 -4.681,-15.9353 -11.77293,-21.35942 -29.13793,-21.35942 -0.004,0 -25.57535,0.0688 -25.57535,0.0688 l -9.30785,-30.04176 -39.89602,0.0102 6.16861,9.14818 12.25666,39.53859 H 492.197 c 6.4361,0 6.85936,2.62605 8.83616,7.61005 0.004,0.004 5.74178,20.06783 8.10518,27.88253 2.6514,8.7683 2.77201,12.21564 -5.28529,12.21564 h -41.14556 l 2.65583,9.0222 0.0498,0.17139 z"
       transform="matrix(1.3333,0,0,-1.3333,-502.52998,560.53998)"
       inkscape:export-filename="layers/mask.inv.svg"
       inkscape:export-xdpi="2540"
       inkscape:export-ydpi="2540" />
    <path
       d="m 556.35,369.83 c -6.539,8.4806 -18.116,9.4609 -26.254,9.4609 0,0 -13.963,0.003 -29.248,0.003 1.1082,4.7135 2.8602,12.181 3.2497,14.157 1.239,6.2833 -0.1558,12.268 -3.9346,16.866 -5.0707,6.1745 -13.554,9.1772 -25.925,9.1772 -0.0191,0 -40.253,0.0323 -40.253,0.0323 -21.492,0 -33.772,-9.1875 -39.819,-29.788 l -0.0382,-0.13081 c -0.0265,-0.0911 -0.0456,-0.17196 -15.043,-58.156 -2.7323,-10.193 -1.8166,-18.134 2.8249,-24.181 6.4067,-8.3527 17.345,-9.3183 25.017,-9.3183 l 29.601,-0.0294 c -4.0066,-12.932 -9.1993,-29.678 -9.627,-31.062 -1.2096,-1.796 -17.598,-26.084 -17.598,-26.084 l 70.73,-0.025 c 0,0 6.9285,22.31 9.3257,30.024 6.6963,-0.0176 16.87,-0.047 16.87,-0.047 22.534,0 34.254,8.6408 40.476,29.827 l 0.0544,0.1896 12.12,45.009 c 1.2317,4.6768 4.0757,15.51 -2.528,24.075"
       fill="#154734"
       id="path10"
       inkscape:label="Green (pointy)"
       transform="matrix(1.3333,0,0,-1.3333,-502.52997,560.53997)"
       style="display:none;fill:none;fill-opacity:1;stroke:#000000;stroke-opacity:1" />
    <path
       d="m 530.096,379.2909 c 0,0 -13.963,0.003 -29.248,0.003 1.1082,4.7135 2.8602,12.181 3.2497,14.157 1.239,6.2833 -0.1558,12.268 -3.9346,16.866 -5.0707,6.1745 -13.554,9.1772 -25.925,9.1772 -0.0191,0 -40.253,0.0323 -40.253,0.0323 -21.492,0 -33.772,-9.1875 -39.819,-29.788 l -0.0382,-0.13081 c -0.0265,-0.0911 -0.0456,-0.17196 -15.043,-58.156 -2.7323,-10.193 -1.8166,-18.134 2.8249,-24.181 6.4067,-8.3527 17.345,-9.3183 25.017,-9.3183 l 29.601,-0.0294 c -4.0066,-12.932 -9.1993,-29.678 -9.627,-31.062 -0.94235,-1.39919 -11.09721,-16.44951 -15.53846,-23.03168 -1.13745,-1.68575 -0.41097,-3.0529 1.62264,-3.05362 l 63.66755,-0.0225 c 1.86687,-6.6e-4 3.82912,1.44412 4.38282,3.22699 2.00866,6.46773 6.49033,20.89793 8.32315,26.79582 6.6963,-0.0176 16.87,-0.047 16.87,-0.047 22.534,0 34.254,8.6408 40.476,29.827 l 0.0544,0.1896 12.12,45.009 c 1.2317,4.6768 4.0757,15.51 -2.52845,24.07525 -6.53945,8.48086 -18.11645,9.46116 -26.25445,9.46116 z"
       fill="#154734"
       id="path15"
       inkscape:label="Green"
       style="display:inline;fill:none;stroke:#000000;stroke-width:0.999775;stroke-dasharray:none;stroke-opacity:1"
       inkscape:export-filename="layers/cu.svg"
       inkscape:export-xdpi="2540"
       inkscape:export-ydpi="2540"
       transform="matrix(1.3333,0,0,-1.3333,-502.52997,560.53997)"
       inkscape:path-effect="#path-effect16"
       inkscape:original-d="m 530.096,379.2909 c 0,0 -13.963,0.003 -29.248,0.003 1.1082,4.7135 2.8602,12.181 3.2497,14.157 1.239,6.2833 -0.1558,12.268 -3.9346,16.866 -5.0707,6.1745 -13.554,9.1772 -25.925,9.1772 -0.0191,0 -40.253,0.0323 -40.253,0.0323 -21.492,0 -33.772,-9.1875 -39.819,-29.788 l -0.0382,-0.13081 c -0.0265,-0.0911 -0.0456,-0.17196 -15.043,-58.156 -2.7323,-10.193 -1.8166,-18.134 2.8249,-24.181 6.4067,-8.3527 17.345,-9.3183 25.017,-9.3183 l 29.601,-0.0294 c -4.0066,-12.932 -9.1993,-29.678 -9.627,-31.062 -1.2096,-1.796 -17.598,-26.084 -17.598,-26.084 l 70.73,-0.025 c 0,0 6.9285,22.31 9.3257,30.024 6.6963,-0.0176 16.87,-0.047 16.87,-0.047 22.534,0 34.254,8.6408 40.476,29.827 l 0.0544,0.1896 12.12,45.009 c 1.2317,4.6768 4.0757,15.51 -2.52845,24.07525 -6.53945,8.48086 -18.11645,9.46116 -26.25445,9.46116 z"
       sodipodi:nodetypes="ccccsccccccccccccccccc" />
  </g>
  <g
     inkscape:groupmode="layer"
     id="layer7"
     inkscape:label="Silk"
     style="display:none"
     inkscape:export-filename="layers/silk.svg"
     inkscape:export-xdpi="2540"
     inkscape:export-ydpi="2540">
    <path
       d="m 433.98,407.73 c -16.422,0 -23.879,-5.584 -28.499,-21.318 0,0 -14.978,-57.904 -14.981,-57.921 -3.7979,-14.17 1.829,-18.75 16.43,-18.75 l 40.553,-0.0366 c 16.403,0 24.679,5.5661 28.677,19.223 l 2.8623,9.7017 -36.488,-0.003 c 0,0 -1.4829,-10.118 -9.2139,-10.118 -5.6468,0 -4.9457,4.0765 -4.3989,6.7515 0.54822,2.6735 11.282,45.613 11.282,45.62 1.6212,6.7653 6.6067,8.7507 10.033,7.9673 2.1929,-0.50266 3.7218,-2.4189 3.394,-4.0254 -0.24986,-1.217 -1.5425,-6.7251 -1.5425,-6.7251 l 36.356,-0.0293 c 0,0 3.5725,15.045 4.0898,17.665 1.4066,7.1372 -3.7584,11.966 -18.293,11.966 l -40.261,0.0322 z m 27.99,-40.225 3.4438,-9.3618 -0.0498,-0.17138 -2.6558,-9.022 h 41.145 c 8.0573,0 7.9366,-3.4467 5.2852,-12.215 -2.3634,-7.8147 -8.101,-27.879 -8.105,-27.883 -1.9768,-4.984 -2.3998,-7.6099 -8.8359,-7.6099 h -42.293 l -12.256,-39.539 -6.1685,-9.148 39.895,-0.0103 9.3091,30.042 c 0,0 25.571,-0.0689 25.575,-0.0689 17.365,0 24.456,5.4237 29.137,21.359 0,0 12.099,44.93 12.103,44.941 2.8161,10.713 2.56,18.677 -17.399,18.677 -0.007,0 -68.128,0.0102 -68.128,0.0102 z"
       fill="#f8e08e"
       id="path8"
       transform="matrix(1.3333,0,0,-1.3333,-502.52998,560.53998)"
       inkscape:label="White"
       style="display:inline;fill:#000000;fill-opacity:1" />
  </g>
  <g
     inkscape:groupmode="layer"
     id="layer8"
     inkscape:label="Orig"
     style="display:none">
    <path
       d="m 556.35,369.83 c -6.539,8.4806 -18.116,9.4609 -26.254,9.4609 0,0 -13.963,0.003 -29.248,0.003 1.1082,4.7135 2.8602,12.181 3.2497,14.157 1.239,6.2833 -0.1558,12.268 -3.9346,16.866 -5.0707,6.1745 -13.554,9.1772 -25.925,9.1772 -0.0191,0 -40.253,0.0323 -40.253,0.0323 -21.492,0 -33.772,-9.1875 -39.819,-29.788 l -0.0382,-0.13081 c -0.0265,-0.0911 -0.0456,-0.17196 -15.043,-58.156 -2.7323,-10.193 -1.8166,-18.134 2.8249,-24.181 6.4067,-8.3527 17.345,-9.3183 25.017,-9.3183 l 29.601,-0.0294 c -4.0066,-12.932 -9.1993,-29.678 -9.627,-31.062 -1.2096,-1.796 -17.598,-26.084 -17.598,-26.084 l 70.73,-0.025 c 0,0 6.9285,22.31 9.3257,30.024 6.6963,-0.0176 16.87,-0.047 16.87,-0.047 22.534,0 34.254,8.6408 40.476,29.827 l 0.0544,0.1896 12.12,45.009 c 1.2317,4.6768 4.0757,15.51 -2.528,24.075"
       fill="#154734"
       id="path1"
       inkscape:label="Green"
       transform="matrix(1.3333,0,0,-1.3333,-502.52999,560.53999)" />
    <path
       d="m 433.98,410.95 c -17.74,0 -26.592,-6.6271 -31.585,-23.628 v -10e-4 c -0.0279,-0.10141 -15.009,-58.02 -15.009,-58.02 -2.0404,-7.6276 -1.6153,-12.972 1.3286,-16.812 3.1659,-4.1242 8.7824,-5.9634 18.212,-5.9634 l 40.556,-0.0352 c 17.869,0 27.325,6.4402 31.762,21.532 l 4.0796,13.825 -43.544,-0.003 -0.42627,-2.7363 c -0.0118,-0.0735 -1.1967,-7.3843 -6.0352,-7.3843 -1.167,0 -1.5249,0.24022 -1.5293,0.24316 -0.0985,0.24839 -0.0216,1.1625 0.28125,2.6484 0.37626,1.8372 6.2618,25.516 11.188,45.239 l 0.0864,0.35156 c 1.1479,4.7914 4.3224,5.9326 6.1714,5.5093 0.5056,-0.11611 0.78333,-0.40084 0.89062,-0.55664 -0.29689,-1.2934 -2.3569,-10.26 -2.3569,-10.26 l 4.0342,-0.0176 38.897,-0.0322 0.58887,2.477 c 0.14551,0.61583 3.5915,15.136 4.1162,17.785 0.74224,3.77 0.004,7.1426 -2.1445,9.7588 -3.3437,4.0698 -9.6591,6.0469 -19.305,6.0469 -0.0176,0 -40.258,0.0337 -40.258,0.0337 z m 23.372,-40.226 1.5982,-4.3316 c 0,0 2.4956,-6.7652 3.0835,-8.3599 -0.41152,-1.3963 -3.6284,-12.302 -3.6284,-12.302 h 45.447 c 3.013,0 3.5844,-0.5493 3.5889,-0.55371 0.0764,-0.12346 0.13037,-0.35028 0.13037,-0.73242 0,-0.95828 -0.34178,-2.9094 -1.5117,-6.7749 0,0 -8.0551,-27.709 -8.0771,-27.785 -0.0941,-0.24104 -0.41895,-1.0752 -0.41895,-1.0752 -1.5183,-3.9375 -1.6781,-4.3491 -5.3686,-4.3491 h -44.662 c 0,0 -12.543,-40.465 -12.816,-41.351 -0.48503,-0.72018 -9.2871,-13.765 -9.2871,-13.765 l 48.294,-0.0146 c 0,0 8.12,26.158 9.3267,30.038 3.9081,-0.0103 23.205,-0.0645 23.205,-0.0645 18.659,0 27.093,6.192 32.225,23.666 0.0176,0.0691 12.125,45.013 12.125,45.013 1.555,5.9232 2.4977,12.017 -1.043,16.607 -3.2203,4.1786 -9.4058,6.123 -19.463,6.123 l -68.131,0.0117 h -4.6157 z"
       fill="#b28f4f"
       id="path2"
       transform="matrix(1.3333,0,0,-1.3333,-502.52999,560.53999)"
       style="display:none"
       inkscape:label="Gold" />
    <path
       d="m 433.98,407.73 c -16.422,0 -23.879,-5.584 -28.499,-21.318 0,0 -14.978,-57.904 -14.981,-57.921 -3.7979,-14.17 1.829,-18.75 16.43,-18.75 l 40.553,-0.0366 c 16.403,0 24.679,5.5661 28.677,19.223 l 2.8623,9.7017 -36.488,-0.003 c 0,0 -1.4829,-10.118 -9.2139,-10.118 -5.6468,0 -4.9457,4.0765 -4.3989,6.7515 0.54822,2.6735 11.282,45.613 11.282,45.62 1.6212,6.7653 6.6067,8.7507 10.033,7.9673 2.1929,-0.50266 3.7218,-2.4189 3.394,-4.0254 -0.24986,-1.217 -1.5425,-6.7251 -1.5425,-6.7251 l 36.356,-0.0293 c 0,0 3.5725,15.045 4.0898,17.665 1.4066,7.1372 -3.7584,11.966 -18.293,11.966 l -40.261,0.0322 z m 27.99,-40.225 3.4438,-9.3618 -0.0498,-0.17138 -2.6558,-9.022 h 41.145 c 8.0573,0 7.9366,-3.4467 5.2852,-12.215 -2.3634,-7.8147 -8.101,-27.879 -8.105,-27.883 -1.9768,-4.984 -2.3998,-7.6099 -8.8359,-7.6099 h -42.293 l -12.256,-39.539 -6.1685,-9.148 39.895,-0.0103 9.3091,30.042 c 0,0 25.571,-0.0689 25.575,-0.0689 17.365,0 24.456,5.4237 29.137,21.359 0,0 12.099,44.93 12.103,44.941 2.8161,10.713 2.56,18.677 -17.399,18.677 -0.007,0 -68.128,0.0102 -68.128,0.0102 z"
       fill="#f8e08e"
       id="path3"
       inkscape:label="White"
       style="display:none;fill:#ffffff;fill-opacity:1"
       transform="matrix(1.3333,0,0,-1.3333,-502.52999,560.53999)" />
    <path
       d="m 433.98,407.73 c -16.422,0 -23.879,-5.584 -28.499,-21.318 0,0 -14.978,-57.904 -14.981,-57.921 -3.7979,-14.17 1.829,-18.75 16.43,-18.75 l 40.553,-0.0366 c 16.403,0 24.679,5.5661 28.677,19.223 l 2.8623,9.7017 -36.488,-0.003 c 0,0 -1.4829,-10.118 -9.2139,-10.118 -5.6468,0 -4.9457,4.0765 -4.3989,6.7515 0.54822,2.6735 11.282,45.613 11.282,45.62 1.6212,6.7653 6.6067,8.7507 10.033,7.9673 2.1929,-0.50266 3.7218,-2.4189 3.394,-4.0254 -0.24986,-1.217 -1.5425,-6.7251 -1.5425,-6.7251 l 36.356,-0.0293 c 0,0 3.5725,15.045 4.0898,17.665 1.4066,7.1372 -3.7584,11.966 -18.293,11.966 l -40.261,0.0322 z m 27.99,-40.225 3.4438,-9.3618 -0.0498,-0.17138 -2.6558,-9.022 h 41.145 c 8.0573,0 7.9366,-3.4467 5.2852,-12.215 -2.3634,-7.8147 -8.101,-27.879 -8.105,-27.883 -1.9768,-4.984 -2.3998,-7.6099 -8.8359,-7.6099 h -42.293 l -12.256,-39.539 -6.1685,-9.148 39.895,-0.0103 9.3091,30.042 c 0,0 25.571,-0.0689 25.575,-0.0689 17.365,0 24.456,5.4237 29.137,21.359 0,0 12.099,44.93 12.103,44.941 2.8161,10.713 2.56,18.677 -17.399,18.677 -0.007,0 -68.128,0.0102 -68.128,0.0102 z"
       fill="#f8e08e"
       id="path4"
       transform="matrix(1.3333,0,0,-1.3333,-502.52999,560.53999)"
       inkscape:label="Yellow"
       style="display:none" />
  </g>
</svg>
